Walking05_kinetics.mot
version=1
nRows=40
nColumns=19
inDegrees=yes
endheader
time	1_ground_force_vx	1_ground_force_vy	1_ground_force_vz	1_ground_force_px	1_ground_force_py	1_ground_force_pz	2_ground_force_vx	2_ground_force_vy	2_ground_force_vz	2_ground_force_px	2_ground_force_py	2_ground_force_pz	1_ground_torque_x	1_ground_torque_y	1_ground_torque_z	2_ground_torque_x	2_ground_torque_y	2_ground_torque_z
  0.00000000	-19.72157523	125.10142157	 14.66461538	 -0.44500822	 -0.00029051	  0.11475852	  0.00000000	  0.00000000	  0.00000000	  0.30181907	  0.00246885	 -0.10097818	 -0.00066470	 -0.51351827	  0.00032691	  0.00000000	  0.00000000	  0.00000000
  0.00100000	-24.81206662	180.53093800	 17.03536059	 -0.43974043	 -0.00029539	  0.11780074	  0.00000000	  0.00000000	  0.00000000	  0.30181907	  0.00246885	 -0.10097818	 -0.00062811	 -0.48524665	  0.00030891	  0.00000000	  0.00000000	  0.00000000
  0.00200000	-29.96455290	232.99919401	 19.34504365	 -0.43471710	 -0.00030008	  0.12064707	  0.00000000	  0.00000000	  0.00000000	  0.30181907	  0.00246885	 -0.10097818	 -0.00059503	 -0.45968789	  0.00029264	  0.00000000	  0.00000000	  0.00000000
  0.00300000	-35.10432955	280.46279474	 21.52972500	 -0.43012571	 -0.00030442	  0.12317099	  0.00000000	  0.00000000	  0.00000000	  0.30181907	  0.00246885	 -0.10097818	 -0.00056713	 -0.43813840	  0.00027892	  0.00000000	  0.00000000	  0.00000000
  0.00400000	-40.16982615	321.29693682	 23.53074973	 -0.42611071	 -0.00030827	  0.12527608	  0.00000000	  0.00000000	  0.00000000	  0.30181907	  0.00246885	 -0.10097818	 -0.00054658	 -0.42226468	  0.00026882	  0.00000000	  0.00000000	  0.00000000
  0.00500000	-45.11574416	354.47586578	 25.29980565	 -0.42275539	 -0.00031158	  0.12691009	  0.00000000	  0.00000000	  0.00000000	  0.30181907	  0.00246885	 -0.10097818	 -0.00053545	 -0.41366082	  0.00026334	  0.00000000	  0.00000000	  0.00000000
  0.00600000	-49.91572013	379.70418978	 26.80515259	 -0.42006928	 -0.00031431	  0.12807532	  0.00000000	  0.00000000	  0.00000000	  0.30181907	  0.00246885	 -0.10097818	 -0.00053471	 -0.41308927	  0.00026297	  0.00000000	  0.00000000	  0.00000000
  0.00700000	-54.56289910	397.41793454	 28.03556374	 -0.41799276	 -0.00031652	  0.12882524	  0.00000000	  0.00000000	  0.00000000	  0.30181907	  0.00246885	 -0.10097818	 -0.00054390	 -0.42019144	  0.00026750	  0.00000000	  0.00000000	  0.00000000
  0.00800000	-59.06716445	408.60707618	 28.99940627	 -0.41642475	 -0.00031829	  0.12924192	  0.00000000	  0.00000000	  0.00000000	  0.30181907	  0.00246885	 -0.10097818	 -0.00056194	 -0.43412831	  0.00027637	  0.00000000	  0.00000000	  0.00000000
  0.00900000	-63.44977905	414.55740383	 29.72022661	 -0.41525717	 -0.00031969	  0.12940830	  0.00000000	  0.00000000	  0.00000000	  0.30181907	  0.00246885	 -0.10097818	 -0.00058823	 -0.45443420	  0.00028929	  0.00000000	  0.00000000	  0.00000000
  0.01000000	-67.73657134	416.64347200	 30.23107589	 -0.41439423	 -0.00032082	  0.12939417	  0.00000000	  0.00000000	  0.00000000	  0.30181907	  0.00246885	 -0.10097818	 -0.00062266	 -0.48103815	  0.00030623	  0.00000000	  0.00000000	  0.00000000
  0.01100000	-71.95071258	416.20060950	 30.56873302	 -0.41375360	 -0.00032173	  0.12925797	  0.00000000	  0.00000000	  0.00000000	  0.30181907	  0.00246885	 -0.10097818	 -0.00066463	 -0.51346219	  0.00032687	  0.00000000	  0.00000000	  0.00000000
  0.01200000	-76.10725749	414.43752321	 30.76923795	 -0.41326304	 -0.00032250	  0.12905205	  0.00000000	  0.00000000	  0.00000000	  0.30181907	  0.00246885	 -0.10097818	 -0.00071227	 -0.55026726	  0.00035030	  0.00000000	  0.00000000	  0.00000000
  0.01300000	-80.21087613	412.36141565	 30.86560315	 -0.41286208	 -0.00032317	  0.12882226	  0.00000000	  0.00000000	  0.00000000	  0.30181907	  0.00246885	 -0.10097818	 -0.00076303	 -0.58948022	  0.00037527	  0.00000000	  0.00000000	  0.00000000
  0.01400000	-84.25549124	410.72134919	 30.88681033	 -0.41250677	 -0.00032376	  0.12860388	  0.00000000	  0.00000000	  0.00000000	  0.30181907	  0.00246885	 -0.10097818	 -0.00081487	 -0.62952818	  0.00040076	  0.00000000	  0.00000000	  0.00000000
  0.01500000	-88.22384332	409.98716969	 30.85670064	 -0.41217181	 -0.00032432	  0.12841922	  0.00000000	  0.00000000	  0.00000000	  0.30181907	  0.00246885	 -0.10097818	 -0.00086709	 -0.66986913	  0.00042644	  0.00000000	  0.00000000	  0.00000000
  0.01600000	-92.08678394	410.36611929	 30.79258930	 -0.41184873	 -0.00032482	  0.12827818	  0.00000000	  0.00000000	  0.00000000	  0.30181907	  0.00246885	 -0.10097818	 -0.00092040	 -0.71105995	  0.00045266	  0.00000000	  0.00000000	  0.00000000
  0.01700000	-95.80363869	411.85140599	 30.70469216	 -0.41154047	 -0.00032528	  0.12818158	  0.00000000	  0.00000000	  0.00000000	  0.30181907	  0.00246885	 -0.10097818	 -0.00097635	 -0.75428425	  0.00048018	  0.00000000	  0.00000000	  0.00000000
  0.01800000	-99.32457440	414.29498814	 30.59715572	 -0.41125375	 -0.00032569	  0.12812634	  0.00000000	  0.00000000	  0.00000000	  0.30181907	  0.00246885	 -0.10097818	 -0.00103613	 -0.80046178	  0.00050958	  0.00000000	  0.00000000	  0.00000000
  0.01900000	-102.59427837	417.48214597	 30.47027054	 -0.41099213	 -0.00032604	  0.12810992	  0.00000000	  0.00000000	  0.00000000	  0.30181907	  0.00246885	 -0.10097818	 -0.00109953	 -0.84944648	  0.00054076	  0.00000000	  0.00000000	  0.00000000
  0.02000000	-105.55583105	421.18267260	 30.32314731	 -0.41075348	 -0.00032634	  0.12813111	  0.00000000	  0.00000000	  0.00000000	  0.30181907	  0.00246885	 -0.10097818	 -0.00116488	 -0.89992660	  0.00057290	  0.00000000	  0.00000000	  0.00000000
  0.02100000	-108.15458001	425.17590887	 30.15638244	 -0.41053196	 -0.00032659	  0.12818751	  0.00000000	  0.00000000	  0.00000000	  0.30181907	  0.00246885	 -0.10097818	 -0.00122973	 -0.95003290	  0.00060479	  0.00000000	  0.00000000	  0.00000000
  0.02200000	-110.34216620	429.26483291	 29.97400892	 -0.41032098	 -0.00032680	  0.12827338	  0.00000000	  0.00000000	  0.00000000	  0.30181907	  0.00246885	 -0.10097818	 -0.00129190	 -0.99805810	  0.00063537	  0.00000000	  0.00000000	  0.00000000
  0.02300000	-112.08061756	433.29030372	 29.78413559	 -0.41011474	 -0.00032700	  0.12838081	  0.00000000	  0.00000000	  0.00000000	  0.30181907	  0.00246885	 -0.10097818	 -0.00134986	 -1.04283313	  0.00066387	  0.00000000	  0.00000000	  0.00000000
  0.02400000	-113.34603231	437.14323492	 29.59822659	 -0.40990827	 -0.00032719	  0.12850225	  0.00000000	  0.00000000	  0.00000000	  0.30181907	  0.00246885	 -0.10097818	 -0.00140287	 -1.08379149	  0.00068995	  0.00000000	  0.00000000	  0.00000000
  0.02500000	-114.13108441	440.76813514	 29.42906436	 -0.40969689	 -0.00032738	  0.12863186	  0.00000000	  0.00000000	  0.00000000	  0.30181907	  0.00246885	 -0.10097818	 -0.00145089	 -1.12088936	  0.00071356	  0.00000000	  0.00000000	  0.00000000
  0.02600000	-114.44619680	444.15781200	 29.28777251	 -0.40947553	 -0.00032759	  0.12876501	  0.00000000	  0.00000000	  0.00000000	  0.30181907	  0.00246885	 -0.10097818	 -0.00149434	 -1.15445489	  0.00073493	  0.00000000	  0.00000000	  0.00000000
  0.02700000	-114.31951608	447.34443652	 29.18106772	 -0.40923825	 -0.00032781	  0.12889810	  0.00000000	  0.00000000	  0.00000000	  0.30181907	  0.00246885	 -0.10097818	 -0.00153390	 -1.18501585	  0.00075439	  0.00000000	  0.00000000	  0.00000000
  0.02800000	-113.79573444	450.39081595	 29.10967313	 -0.40897824	 -0.00032806	  0.12902967	  0.00000000	  0.00000000	  0.00000000	  0.30181907	  0.00246885	 -0.10097818	 -0.00157030	 -1.21313818	  0.00077229	  0.00000000	  0.00000000	  0.00000000
  0.02900000	-112.93439740	453.38239123	 29.06788305	 -0.40868805	 -0.00032835	  0.12916173	  0.00000000	  0.00000000	  0.00000000	  0.30181907	  0.00246885	 -0.10097818	 -0.00160412	 -1.23926457	  0.00078892	  0.00000000	  0.00000000	  0.00000000
  0.03000000	-111.80825381	456.41923146	 29.04405814	 -0.40835986	 -0.00032869	  0.12929990	  0.00000000	  0.00000000	  0.00000000	  0.30181907	  0.00246885	 -0.10097818	 -0.00163553	 -1.26352805	  0.00080437	  0.00000000	  0.00000000	  0.00000000
  0.03100000	-110.50157086	459.60712392	 29.02176199	 -0.40798555	 -0.00032908	  0.12945186	  0.00000000	  0.00000000	  0.00000000	  0.30181907	  0.00246885	 -0.10097818	 -0.00166406	 -1.28556874	  0.00081840	  0.00000000	  0.00000000	  0.00000000
  0.03200000	-109.10803892	463.04639971	 28.98085191	 -0.40755741	 -0.00032952	  0.12962527	  0.00000000	  0.00000000	  0.00000000	  0.30181907	  0.00246885	 -0.10097818	 -0.00168852	 -1.30446771	  0.00083043	  0.00000000	  0.00000000	  0.00000000
  0.03300000	-107.72780443	466.81860183	 28.89808318	 -0.40706944	 -0.00033003	  0.12982609	  0.00000000	  0.00000000	  0.00000000	  0.30181907	  0.00246885	 -0.10097818	 -0.00170716	 -1.31887197	  0.00083960	  0.00000000	  0.00000000	  0.00000000
  0.03400000	-106.46337502	470.97601909	 28.74755314	 -0.40651876	 -0.00033059	  0.13005768	  0.00000000	  0.00000000	  0.00000000	  0.30181907	  0.00246885	 -0.10097818	 -0.00171798	 -1.32722998	  0.00084492	  0.00000000	  0.00000000	  0.00000000
  0.03500000	-105.41409149	475.54072759	 28.50154639	 -0.40590589	 -0.00033122	  0.13032105	  0.00000000	  0.00000000	  0.00000000	  0.30181907	  0.00246885	 -0.10097818	 -0.00171900	 -1.32801684	  0.00084542	  0.00000000	  0.00000000	  0.00000000
  0.03600000	-104.66968120	480.51239630	 28.13213600	 -0.40523407	 -0.00033190	  0.13061593	  0.00000000	  0.00000000	  0.00000000	  0.30181907	  0.00246885	 -0.10097818	 -0.00170853	 -1.31992614	  0.00084027	  0.00000000	  0.00000000	  0.00000000
  0.03700000	-104.30546286	485.87634592	 27.61386172	 -0.40450785	 -0.00033263	  0.13094158	  0.00000000	  0.00000000	  0.00000000	  0.30181907	  0.00246885	 -0.10097818	 -0.00168541	 -1.30206901	  0.00082890	  0.00000000	  0.00000000	  0.00000000
  0.03800000	-104.38097309	491.60600783	 26.92740429	 -0.40373168	 -0.00033341	  0.13129629	  0.00000000	  0.00000000	  0.00000000	  0.30181907	  0.00246885	 -0.10097818	 -0.00164932	 -1.27418409	  0.00081115	  0.00000000	  0.00000000	  0.00000000
  0.03900000	-104.94039153	497.66233286	 26.06287512	 -0.40290903	 -0.00033423	  0.13167664	  0.00000000	  0.00000000	  0.00000000	  0.30181907	  0.00246885	 -0.10097818	 -0.00160087	 -1.23675694	  0.00078732	  0.00000000	  0.00000000	  0.00000000
